<?xml version="1.0" standalone="no"?><!DOCTYPE svg PUBLIC "-//W3C//DTD SVG 1.1//EN" "http://www.w3.org/Graphics/SVG/1.1/DTD/svg11.dtd"><svg t="1577955958880" class="icon" viewBox="0 0 1024 1024" version="1.1" xmlns="http://www.w3.org/2000/svg" p-id="3031" width="128" height="128" xmlns:xlink="http://www.w3.org/1999/xlink"><defs><style type="text/css"></style></defs><path d="M512 0L56.888889 175.786667v451.128889C56.888889 876.657778 512 1024 512 1024s455.111111-147.342222 455.111111-397.084444V175.786667L512 0zM352.597333 503.068444H548.977778v-43.52H352.597333v43.52z m0-89.031111H548.977778v-40.96H352.597333v40.96z m0-86.357333H548.977778v-40.277333H352.597333v40.277333z m382.520889 318.805333c0-5.973333-4.096-8.931556-12.174222-8.931555h-376.035556c-7.224889 0-10.979556 2.730667-10.979555 8.305778v62.748444c0 3.811556 0.967111 6.257778 2.958222 7.338667 1.934222 1.080889 4.551111 1.706667 8.021333 1.706666h376.035556a17.635556 17.635556 0 0 0 9.329778-1.991111c1.877333-1.308444 2.844444-3.925333 2.844444-7.736889v-61.44z m50.631111 60.188445c0 11.548444-0.796444 21.048889-2.56 28.444444a36.408889 36.408889 0 0 1-9.329777 17.92 36.579556 36.579556 0 0 1-19.228445 9.272889 162.588444 162.588444 0 0 1-32.369778 2.56H348.216889c-12.8 0-23.324444-0.796444-31.516445-2.56a34.304 34.304 0 0 1-18.545777-9.272889 34.190222 34.190222 0 0 1-8.647111-17.92 141.937778 141.937778 0 0 1-2.275556-28.444444V649.671111c0-11.946667 0.739556-21.617778 2.275556-29.127111a32.199111 32.199111 0 0 1 8.931555-17.635556 38.172444 38.172444 0 0 1 18.659556-8.931555c7.850667-1.706667 18.318222-2.503111 31.118222-2.503111h374.044444c12.856889 0 23.267556 0.682667 31.402667 2.161778a38.855111 38.855111 0 0 1 19.342222 8.704 34.645333 34.645333 0 0 1 9.898667 17.863111c1.934222 7.736889 2.844444 17.521778 2.844444 29.468444v57.002667zM400.156444 202.808889l-10.581333 19.569778c-3.640889 6.599111-7.395556 13.084444-11.264 19.512889h189.44a11.719111 11.719111 0 0 1-2.104889-2.56 866.929778 866.929778 0 0 1-15.303111-17.635556 323.754667 323.754667 0 0 0-18.033778-19.569778c-7.281778-7.224889-11.093333-13.596444-11.491555-19.171555-0.512-5.461333 1.706667-10.695111 6.485333-15.36 11.491556-11.548444 24.120889-10.24 37.774222 3.811555 6.428444 6.826667 12.913778 13.824 19.569778 20.821334 6.599111 7.054222 12.288 13.653333 17.009778 19.569777 10.24 12.344889 13.425778 22.414222 9.614222 30.094223h184.206222c14.904889 0 22.414222 7.224889 22.414223 21.731555 0 15.815111-7.509333 23.779556-22.414223 23.779556H595.854222v40.277333h178.403556c15.36 0 23.153778 7.452444 23.153778 22.357333 0 15.36-7.850667 23.096889-23.153778 23.096889H595.854222v40.903111h177.152c15.36 0 23.04 7.509333 23.04 22.471111 0 15.36-7.68 23.04-23.04 23.04H595.854222v43.52h204.003556c15.36 0 23.153778 7.452444 23.153778 22.414223 0 15.36-7.736889 23.096889-23.153778 23.096889H352.597333v15.928888c0 7.68-2.161778 13.425778-6.656 17.237334a24.803556 24.803556 0 0 1-16.952889 5.802666c-15.928889 0-23.779556-7.623111-23.779555-22.983111v-219.591111a1218.048 1218.048 0 0 1-41.756445 46.648889c-8.533333 8.590222-15.701333 13.027556-21.504 13.198222-5.688889 0.170667-11.662222-2.446222-17.521777-8.021333a21.959111 21.959111 0 0 1-7.395556-17.066667c0.227556-6.144 4.323556-13.255111 12.515556-21.276444 10.638222-10.695111 22.016-23.210667 34.304-37.546667 12.174222-14.222222 24.120889-29.240889 35.84-44.771555 11.832889-15.587556 22.926222-31.402667 33.109333-47.672889 10.24-16.270222 19.000889-31.857778 26.282667-46.762667 4.778667-9.443556 9.671111-15.473778 15.075555-18.318222 5.404444-2.730667 12.060444-1.991111 20.252445 2.275555a22.641778 22.641778 0 0 1 11.832889 12.515556c1.991111 5.347556-0.113778 13.596444-6.087112 24.632889z" p-id="3032" fill="#ffffff"></path></svg>