<?xml version="1.0" standalone="no"?><!DOCTYPE svg PUBLIC "-//W3C//DTD SVG 1.1//EN" "http://www.w3.org/Graphics/SVG/1.1/DTD/svg11.dtd"><svg class="icon" width="200px" height="200.00px" viewBox="0 0 1024 1024" version="1.1" xmlns="http://www.w3.org/2000/svg"><path d="M302.152 812.314a52.797 52.797 0 0 0-52.71-52.957H108.988a52.956 52.956 0 0 0 0 105.913h140.452a52.797 52.797 0 0 0 52.71-52.956zM108.989 264.95h140.452a52.956 52.956 0 0 0 0-105.913H108.99a52.956 52.956 0 0 0 0 105.913zM56.28 512.246a52.797 52.797 0 0 0 52.71 52.956h140.452a52.956 52.956 0 0 0 0-105.912H108.99a52.7 52.7 0 0 0-52.71 52.94zM894.781 0h-680.53a52.803 52.803 0 0 0-52.71 52.966v52.951h87.747a105.912 105.912 0 0 1 0 211.83h-87.593v88.269h87.741a105.912 105.912 0 0 1 0 211.82h-87.741v88.263h87.741a105.984 105.984 0 0 1 0 211.968h-87.741v52.956A52.803 52.803 0 0 0 214.4 1024h680.545c40.034 0 72.704-23.788 72.704-52.946V52.966C967.506 23.654 934.98 0 894.781 0zM797.62 582.753H686.67v130.048a36.08 36.08 0 0 1-72.044 0V582.753H510.572a34.1 34.1 0 1 1 0-68.096h104.053v-37.816H510.572a34.1 34.1 0 1 1 0-68.096h54.359l-79.668-73.16a32.768 32.768 0 0 1-0.747-48.128 37.53 37.53 0 0 1 50.944-0.696l115.144 105.748 115.169-105.64a37.51 37.51 0 0 1 50.939 0.511 32.768 32.768 0 0 1-0.512 48.128l-79.135 73.242h60.38a34.1 34.1 0 1 1 0 68.096H686.674v37.827h110.945a34.1 34.1 0 1 1 0 68.096z" fill="#ffffff" /></svg>