<?xml version="1.0" standalone="no"?><!DOCTYPE svg PUBLIC "-//W3C//DTD SVG 1.1//EN" "http://www.w3.org/Graphics/SVG/1.1/DTD/svg11.dtd"><svg class="icon" width="200px" height="200.00px" viewBox="0 0 1024 1024" version="1.1" xmlns="http://www.w3.org/2000/svg"><path d="M950.831718 181.396828H73.123789a28.742299 28.742299 0 0 1 0-57.484597h877.707929a28.742299 28.742299 0 0 1 0 57.484597z m-283.151683-115.013687h-311.449055a28.519835 28.519835 0 0 1-28.297371-28.742298A28.60882 28.60882 0 0 1 356.319965 8.898544h311.449055a28.564328 28.564328 0 0 1 28.297371 28.742299 28.519835 28.519835 0 0 1-28.297371 28.742298z m-283.018206 747.477732V325.152813a28.341864 28.341864 0 1 1 56.639236 0v488.70806a28.341864 28.341864 0 1 1-56.639236 0z m198.215077 0V325.152813a28.341864 28.341864 0 1 1 56.639236 0v488.70806a28.341864 28.341864 0 1 1-56.639236 0zM186.402259 267.623724a28.564328 28.564328 0 0 1 28.297372 28.742298v603.76624a57.128655 57.128655 0 0 0 56.639235 57.484597h481.277775a57.084163 57.084163 0 0 0 56.639236-57.484597V296.410515a28.341864 28.341864 0 1 1 56.639235 0v632.464045a85.603997 85.603997 0 0 1-84.936607 86.226896H243.041495a85.603997 85.603997 0 0 1-84.936607-86.226896V296.410515a28.564328 28.564328 0 0 1 28.297371-28.742299z" fill="#EF4A4A" /></svg>