<?xml version="1.0" standalone="no"?><!DOCTYPE svg PUBLIC "-//W3C//DTD SVG 1.1//EN" "http://www.w3.org/Graphics/SVG/1.1/DTD/svg11.dtd"><svg class="icon" width="200px" height="200.00px" viewBox="0 0 1024 1024" version="1.1" xmlns="http://www.w3.org/2000/svg"><path d="M831.53542 384.32533H287.738786V160.46674a94.227582 94.227582 0 0 1 95.97052-95.97052H639.594381a94.227582 94.227582 0 0 1 95.97052 95.97052v127.88807a32.026484 32.026484 0 1 0 63.944035 0V160.46674A158.389485 158.389485 0 0 0 639.594381 0.007516H383.709306a158.389485 158.389485 0 0 0-159.914556 160.459224v223.85859H191.768266A94.118648 94.118648 0 0 0 96.015613 477.136775v454.035331a94.118648 94.118648 0 0 0 95.752653 92.811445h639.767154a94.227582 94.227582 0 0 0 95.97052-95.97052v-447.717181a94.227582 94.227582 0 0 0-95.97052-95.97052z m32.026485 543.687701a30.174613 30.174613 0 0 1-32.026485 32.026485H191.768266a30.174613 30.174613 0 0 1-32.026484-32.026485v-447.717181a30.174613 30.174613 0 0 1 32.026484-32.026484h639.767154a30.174613 30.174613 0 0 1 32.026485 32.026484z" fill="#EF4A4A" /><path d="M511.70631 576.26637a32.026484 32.026484 0 0 0-32.026484 32.026484V800.12496a32.026484 32.026484 0 1 0 63.944035 0V608.183921a32.026484 32.026484 0 0 0-31.917551-31.917551z" fill="#EF4A4A" /></svg>