<?xml version="1.0" standalone="no"?><!DOCTYPE svg PUBLIC "-//W3C//DTD SVG 1.1//EN" "http://www.w3.org/Graphics/SVG/1.1/DTD/svg11.dtd"><svg t="1577428906593" class="icon" viewBox="0 0 1024 1024" version="1.1" xmlns="http://www.w3.org/2000/svg" p-id="3636" data-spm-anchor-id="a313x.7781069.0.i2" width="32" height="32" xmlns:xlink="http://www.w3.org/1999/xlink"><defs><style type="text/css"></style></defs><path d="M858.855875 718.930937a28.031907 28.031907 0 0 0-38.527872 0 25.727914 25.727914 0 0 0 0 37.205209c82.346392 79.701068 127.743574 128.852904 127.743574 241.492529 0 14.506618 12.159959 26.367912 27.306576 26.367912 15.146616 0 27.263909-11.861294 27.263909-26.410579 0-126.719578-51.07183-189.012703-143.786187-278.697738zM511.977031 0C331.668299 0 184.852788 141.994193 184.852788 316.457612c0 124.458252 74.709084 232.447225 182.954057 283.988387a490.665031 490.665031 0 0 0-202.708658 118.314272C72.38383 808.445305 21.312 870.823764 21.312 997.586008c0 14.549285 12.117293 26.410579 27.306576 26.410579a26.87991 26.87991 0 0 0 27.263909-26.410579c0-112.767624 45.269182-161.706128 127.743574-241.449862 79.359735-76.842411 184.106053-120.404932 295.84968-123.348922 4.095986 0.128 8.362639 0.255999 12.501292 0.255999 180.308732 0 327.124243-142.03686 327.124243-316.457612 0-174.591418-146.772844-316.585611-327.124243-316.585611z m4.522652 580.222066a28.159906 28.159906 0 0 0-4.650651-0.383999c-4.138653 0-8.277306 0-12.373293 0.128-144.554185-6.271979-260.180466-122.02626-260.180466-263.380456 0-145.492848 122.282259-263.764454 272.553759-263.764454 150.314166 0 272.553758 118.314272 272.553758 263.764454 0.128 143.828854-119.764934 261.289796-267.945774 263.636455z" fill="#ff4848" p-id="3637"></path></svg>